<svg width="24" height="25" viewBox="0 0 24 25" fill="none" xmlns="http://www.w3.org/2000/svg">
<path d="M21 18.5C20.844 18.5 20.688 18.5 20.532 18.548L18.6 14.648C19.14 14.108 19.5 13.352 19.5 12.5C19.5 10.844 18.156 9.5 16.5 9.5C16.344 9.5 16.2 9.5 16.032 9.548L14.076 5.648C14.652 5.108 15 4.352 15 3.5C15 1.844 13.656 0.5 12 0.5C10.344 0.5 9 1.844 9 3.5C9 4.352 9.348 5.108 9.912 5.648L7.968 9.548C7.8 9.5 7.656 9.5 7.5 9.5C5.844 9.5 4.5 10.844 4.5 12.5C4.5 13.352 4.86 14.108 5.4 14.648L3.468 18.548C3.312 18.5 3.156 18.5 3 18.5C1.344 18.5 0 19.844 0 21.5C0 23.156 1.344 24.5 3 24.5C4.656 24.5 6 23.156 6 21.5C6 20.66 5.652 19.892 5.088 19.352L7.032 15.452C7.2 15.5 7.344 15.5 7.5 15.5C7.656 15.5 7.8 15.5 7.968 15.452L9.924 19.352C9.36 19.892 9 20.66 9 21.5C9 23.156 10.344 24.5 12 24.5C13.656 24.5 15 23.156 15 21.5C15 19.844 13.656 18.5 12 18.5C11.844 18.5 11.688 18.5 11.532 18.548L9.6 14.648C10.152 14.108 10.5 13.352 10.5 12.5C10.5 11.648 10.152 10.892 9.6 10.352L11.532 6.452C11.688 6.5 11.844 6.5 12 6.5C12.156 6.5 12.312 6.5 12.468 6.452L14.4 10.352C13.86 10.892 13.5 11.66 13.5 12.5C13.5 14.156 14.844 15.5 16.5 15.5C16.656 15.5 16.8 15.5 16.968 15.452L18.924 19.352C18.36 19.892 18 20.66 18 21.5C18 23.156 19.344 24.5 21 24.5C22.656 24.5 24 23.156 24 21.5C24 19.844 22.656 18.5 21 18.5Z" fill="white"/>
</svg>
