<svg width="22" height="22" viewBox="0 0 22 22" fill="none" xmlns="http://www.w3.org/2000/svg">
<path d="M2.64043 22C2.03543 22 1.5177 21.7848 1.08723 21.3543C0.656029 20.9231 0.44043 20.405 0.44043 19.8V2.2C0.44043 1.595 0.656029 1.0769 1.08723 0.6457C1.5177 0.215233 2.03543 0 2.64043 0H11.4404L18.0404 6.6V11H15.8404V7.7H10.3404V2.2H2.64043V19.8H9.24043V22H2.64043ZM16.1704 13.7775L17.3529 14.96L13.0904 19.195V20.35H14.2454L18.5079 16.115L19.6629 17.27L14.9329 22H11.4404V18.5075L16.1704 13.7775ZM19.6629 17.27L16.1704 13.7775L17.7654 12.1825C17.9671 11.9808 18.2238 11.88 18.5354 11.88C18.8471 11.88 19.1038 11.9808 19.3054 12.1825L21.2579 14.135C21.4596 14.3367 21.5604 14.5933 21.5604 14.905C21.5604 15.2167 21.4596 15.4733 21.2579 15.675L19.6629 17.27Z" fill="white"/>
</svg>
