<svg width="22" height="22" viewBox="0 0 22 22" fill="none" xmlns="http://www.w3.org/2000/svg">
<path d="M4.9498 13.2H8.9923C9.19397 12.7783 9.42772 12.3842 9.69355 12.0175C9.95939 11.6508 10.2573 11.3117 10.5873 11H4.9498V13.2ZM4.9498 17.6H8.3323C8.2773 17.2333 8.2498 16.8667 8.2498 16.5C8.2498 16.1333 8.2773 15.7667 8.3323 15.4H4.9498V17.6ZM2.7498 22C2.1448 22 1.62689 21.7846 1.19605 21.3538C0.765221 20.9229 0.549805 20.405 0.549805 19.8V2.2C0.549805 1.595 0.765221 1.07708 1.19605 0.64625C1.62689 0.215417 2.1448 0 2.7498 0H11.5498L18.1498 6.6V9.13C17.8015 9.02 17.444 8.9375 17.0773 8.8825C16.7106 8.8275 16.3348 8.8 15.9498 8.8V7.7H10.4498V2.2H2.7498V19.8H8.9923C9.19397 20.2217 9.42772 20.6158 9.69355 20.9825C9.95939 21.3492 10.2573 21.6883 10.5873 22H2.7498ZM15.9498 11C17.4715 11 18.7686 11.5363 19.8411 12.6088C20.9136 13.6812 21.4498 14.9783 21.4498 16.5C21.4498 18.0217 20.9136 19.3188 19.8411 20.3913C18.7686 21.4637 17.4715 22 15.9498 22C14.4281 22 13.1311 21.4637 12.0586 20.3913C10.9861 19.3188 10.4498 18.0217 10.4498 16.5C10.4498 14.9783 10.9861 13.6812 12.0586 12.6088C13.1311 11.5363 14.4281 11 15.9498 11ZM15.9498 19.8C16.1515 19.8 16.3211 19.7313 16.4586 19.5938C16.5961 19.4562 16.6648 19.2867 16.6648 19.085C16.6648 18.8833 16.5961 18.7138 16.4586 18.5763C16.3211 18.4387 16.1515 18.37 15.9498 18.37C15.7481 18.37 15.5786 18.4387 15.4411 18.5763C15.3036 18.7138 15.2348 18.8833 15.2348 19.085C15.2348 19.2867 15.3036 19.4562 15.4411 19.5938C15.5786 19.7313 15.7481 19.8 15.9498 19.8ZM15.4548 17.71H16.4448V17.435C16.4448 17.2333 16.4998 17.0546 16.6098 16.8988C16.7198 16.7429 16.8481 16.5917 16.9948 16.445C17.2515 16.225 17.4531 16.0142 17.5998 15.8125C17.7465 15.6108 17.8198 15.3267 17.8198 14.96C17.8198 14.4283 17.6456 14.0021 17.2973 13.6812C16.949 13.3604 16.4998 13.2 15.9498 13.2C15.5281 13.2 15.1477 13.3237 14.8086 13.5712C14.4694 13.8188 14.2265 14.1533 14.0798 14.575L14.9598 14.96C15.0148 14.74 15.1294 14.5475 15.3036 14.3825C15.4777 14.2175 15.6931 14.135 15.9498 14.135C16.2248 14.135 16.4402 14.2037 16.5961 14.3412C16.7519 14.4788 16.8298 14.685 16.8298 14.96C16.8298 15.1617 16.7748 15.3313 16.6648 15.4688C16.5548 15.6062 16.4265 15.7483 16.2798 15.895C16.1698 16.005 16.0552 16.115 15.9361 16.225C15.8169 16.335 15.7115 16.4633 15.6198 16.61C15.5648 16.72 15.5236 16.83 15.4961 16.94C15.4686 17.05 15.4548 17.1783 15.4548 17.325V17.71Z" fill="white"/>
</svg>
