<svg width="25" height="25" viewBox="0 0 25 25" fill="none" xmlns="http://www.w3.org/2000/svg">
<path d="M0 25V6.25C0 5.91848 0.131696 5.60054 0.366116 5.36612C0.600537 5.1317 0.918479 5 1.25 5H6.25V0H18.75V5H23.75C24.0815 5 24.3995 5.1317 24.6339 5.36612C24.8683 5.60054 25 5.91848 25 6.25V25H15V18.75H10V25H0ZM8.75 2.5V10H11.25V7.5H13.75V10H16.25V2.5H13.75V5H11.25V2.5H8.75ZM2.5 22.5H7.5V18.75H2.5V22.5ZM2.5 16.25H7.5V12.5H2.5V16.25ZM17.5 22.5H22.5V18.75H17.5V22.5ZM17.5 16.25H22.5V12.5H17.5V16.25ZM10 16.25H15V12.5H10V16.25Z" fill="white"/>
</svg>
