<svg width="28" height="29" viewBox="0 0 28 29" fill="none" xmlns="http://www.w3.org/2000/svg">
<path d="M12.7273 0.5H2.54545C1.14545 0.5 0 1.64545 0 3.04545V18.3182L3.81818 14.5H10.1818V13.2273C10.1818 10.4273 12.46 8.13636 15.2727 8.13636V3.04545C15.2727 1.64545 14.1273 0.5 12.7273 0.5ZM12.7273 4.31818H10.8182C10.3855 5.83273 9.59636 7.24545 8.50182 8.46727L8.47636 8.49273L10.08 10.0836L9.60909 11.3691L7.63636 9.40909L4.45455 12.5909L3.57636 11.6618L6.79636 8.49273C6.00727 7.61455 5.37091 6.63455 4.91273 5.59091H6.17273C6.56727 6.35455 7.05091 7.08 7.63636 7.72909C8.55273 6.71091 9.21455 5.55273 9.63455 4.31818H2.54545V3.04545H7V1.77273H8.27273V3.04545H12.7273V4.31818ZM25.4545 10.6818H15.2727C13.8727 10.6818 12.7273 11.8273 12.7273 13.2273V22.1364C12.7273 23.5364 13.8727 24.6818 15.2727 24.6818H24.1818L28 28.5V13.2273C28 11.8273 26.8545 10.6818 25.4545 10.6818ZM23.7109 23.4091L22.6291 20.5455H18.0982L17.0291 23.4091H15.12L19.4091 11.9545H21.3182L25.62 23.4091H23.7109ZM20.3636 14.5L21.9164 18.6364H18.8236L20.3636 14.5Z" fill="#C5E86C"/>
</svg>
