<svg width="24" height="23" viewBox="0 0 24 23" fill="none" xmlns="http://www.w3.org/2000/svg">
<path d="M21.6 4.90156H16.8V2.50156C16.8 1.86504 16.5471 1.25459 16.0971 0.804506C15.647 0.354419 15.0365 0.101563 14.4 0.101562H9.6C8.268 0.101562 7.2 1.16956 7.2 2.50156V4.90156H2.4C1.068 4.90156 0 5.96956 0 7.30156V20.5016C0 21.1381 0.252856 21.7485 0.702944 22.1986C1.15303 22.6487 1.76348 22.9016 2.4 22.9016H21.6C22.2365 22.9016 22.847 22.6487 23.2971 22.1986C23.7471 21.7485 24 21.1381 24 20.5016V7.30156C24 6.66504 23.7471 6.05459 23.2971 5.60451C22.847 5.15442 22.2365 4.90156 21.6 4.90156ZM9.6 2.50156H14.4V4.90156H9.6V2.50156ZM12 8.50156C12.7956 8.50156 13.5587 8.81763 14.1213 9.38024C14.6839 9.94285 15 10.7059 15 11.5016C15 12.2972 14.6839 13.0603 14.1213 13.6229C13.5587 14.1855 12.7956 14.5016 12 14.5016C11.2044 14.5016 10.4413 14.1855 9.87868 13.6229C9.31607 13.0603 9 12.2972 9 11.5016C9 10.7059 9.31607 9.94285 9.87868 9.38024C10.4413 8.81763 11.2044 8.50156 12 8.50156ZM18 20.5016H6V19.0016C6 17.3456 8.688 16.0016 12 16.0016C15.312 16.0016 18 17.3456 18 19.0016V20.5016Z" fill="white"/>
</svg>
