<svg width="22" height="20" viewBox="0 0 22 20" fill="none" xmlns="http://www.w3.org/2000/svg">
<path d="M11.2821 4.92298H2.25641C1.65797 4.92298 1.08405 5.16071 0.660887 5.58386C0.237728 6.00702 0 6.58095 0 7.17939V11.6922C0 12.2906 0.237728 12.8646 0.660887 13.2877C1.08405 13.7109 1.65797 13.9486 2.25641 13.9486H3.38462V18.4614C3.38462 18.7607 3.50348 19.0476 3.71506 19.2592C3.92664 19.4708 4.2136 19.5896 4.51282 19.5896H6.76923C7.06845 19.5896 7.35541 19.4708 7.56699 19.2592C7.77857 19.0476 7.89744 18.7607 7.89744 18.4614V13.9486H11.2821L16.9231 18.4614V0.410156L11.2821 4.92298ZM14.6667 13.4973L12.4103 11.6922H2.25641V7.17939H12.4103L14.6667 5.37426V13.4973ZM22 9.4358C22 11.365 20.9169 13.1137 19.1795 13.9486V4.92298C20.9056 5.76913 22 7.51785 22 9.4358Z" fill="white"/>
</svg>
