<svg width="21" height="25" viewBox="0 0 21 25" fill="none" xmlns="http://www.w3.org/2000/svg">
<path d="M20.6903 19.9705V21.12H0V19.9705L2.29892 17.6716V10.7748C2.29892 7.2115 4.63232 4.07347 8.04621 3.06195C8.04621 2.947 8.04621 2.84355 8.04621 2.72861C8.04621 2.11889 8.28842 1.53416 8.71955 1.10303C9.15068 0.671894 9.73542 0.429688 10.3451 0.429688C10.9548 0.429688 11.5396 0.671894 11.9707 1.10303C12.4018 1.53416 12.6441 2.11889 12.6441 2.72861C12.6441 2.84355 12.6441 2.947 12.6441 3.06195C16.0579 4.07347 18.3913 7.2115 18.3913 10.7748V17.6716L20.6903 19.9705ZM12.6441 22.2694C12.6441 22.8791 12.4018 23.4639 11.9707 23.895C11.5396 24.3261 10.9548 24.5683 10.3451 24.5683C9.73542 24.5683 9.15068 24.3261 8.71955 23.895C8.28842 23.4639 8.04621 22.8791 8.04621 22.2694" fill="#C5E86C"/>
</svg>
