<svg width="24" height="24" viewBox="0 0 24 24" fill="none" xmlns="http://www.w3.org/2000/svg">
<path d="M4 4.83125H6V8.23789H16V4.83125H18V10.509H20V4.83125C20 3.58215 19.1 2.56016 18 2.56016H13.82C13.4 1.24292 12.3 0.289062 11 0.289062C9.7 0.289062 8.6 1.24292 8.18 2.56016H4C2.9 2.56016 2 3.58215 2 4.83125V20.7289C2 21.978 2.9 23 4 23H9V20.7289H4V4.83125ZM11 2.56016C11.55 2.56016 12 3.07115 12 3.6957C12 4.32025 11.55 4.83125 11 4.83125C10.45 4.83125 10 4.32025 10 3.6957C10 3.07115 10.45 2.56016 11 2.56016Z" fill="white"/>
<path d="M14.995 23.2891L14.7761 21.5291C14.6575 21.4832 14.5459 21.4282 14.4412 21.3641C14.3361 21.2999 14.2334 21.2311 14.1331 21.1578L12.505 21.8453L11 19.2328L12.4092 18.1603C12.4001 18.0961 12.3955 18.0342 12.3955 17.9744V17.6032C12.3955 17.5438 12.4001 17.482 12.4092 17.4178L11 16.3453L12.505 13.7328L14.1331 14.4203C14.2334 14.347 14.3383 14.2782 14.4478 14.2141C14.5572 14.1499 14.6667 14.0949 14.7761 14.0491L14.995 12.2891H18.005L18.2239 14.0491C18.3425 14.0949 18.4543 14.1499 18.5594 14.2141C18.6641 14.2782 18.7666 14.347 18.8669 14.4203L20.495 13.7328L22 16.3453L20.5908 17.4178C20.5999 17.482 20.6045 17.5438 20.6045 17.6032V17.9744C20.6045 18.0342 20.5954 18.0961 20.5771 18.1603L21.9863 19.2328L20.4813 21.8453L18.8669 21.1578C18.7666 21.2311 18.6617 21.2999 18.5522 21.3641C18.4428 21.4282 18.3333 21.4832 18.2239 21.5291L18.005 23.2891H14.995ZM16.5274 19.7141C17.0564 19.7141 17.5079 19.5261 17.8818 19.1503C18.2558 18.7745 18.4428 18.3207 18.4428 17.7891C18.4428 17.2574 18.2558 16.8036 17.8818 16.4278C17.5079 16.052 17.0564 15.8641 16.5274 15.8641C15.9892 15.8641 15.5354 16.052 15.1658 16.4278C14.7966 16.8036 14.6119 17.2574 14.6119 17.7891C14.6119 18.3207 14.7966 18.7745 15.1658 19.1503C15.5354 19.5261 15.9892 19.7141 16.5274 19.7141ZM16.5274 18.6141C16.2993 18.6141 16.1056 18.5338 15.9462 18.3732C15.7864 18.2129 15.7065 18.0182 15.7065 17.7891C15.7065 17.5599 15.7864 17.3652 15.9462 17.205C16.1056 17.0444 16.2993 16.9641 16.5274 16.9641C16.7554 16.9641 16.9493 17.0444 17.1091 17.205C17.2685 17.3652 17.3483 17.5599 17.3483 17.7891C17.3483 18.0182 17.2685 18.2129 17.1091 18.3732C16.9493 18.5338 16.7554 18.6141 16.5274 18.6141ZM15.9527 22.1891H17.0336L17.2251 20.7316C17.5079 20.6582 17.7702 20.5504 18.0121 20.4082C18.2536 20.2663 18.4747 20.0945 18.6754 19.8928L20.0299 20.4566L20.5634 19.5216L19.3868 18.6278C19.4324 18.4995 19.4643 18.3642 19.4826 18.2219C19.5008 18.08 19.51 17.9357 19.51 17.7891C19.51 17.6424 19.5008 17.4979 19.4826 17.3557C19.4643 17.2138 19.4324 17.0786 19.3868 16.9503L20.5634 16.0566L20.0299 15.1216L18.6754 15.6991C18.4747 15.4882 18.2536 15.3117 18.0121 15.1694C17.7702 15.0275 17.5079 14.9199 17.2251 14.8466L17.0473 13.3891H15.9664L15.7749 14.8466C15.4921 14.9199 15.23 15.0275 14.9885 15.1694C14.7466 15.3117 14.5253 15.4836 14.3246 15.6853L12.9701 15.1216L12.4366 16.0566L13.6132 16.9366C13.5676 17.0741 13.5357 17.2116 13.5174 17.3491C13.4992 17.4866 13.4901 17.6332 13.4901 17.7891C13.4901 17.9357 13.4992 18.0778 13.5174 18.2153C13.5357 18.3528 13.5676 18.4903 13.6132 18.6278L12.4366 19.5216L12.9701 20.4566L14.3246 19.8791C14.5253 20.0899 14.7466 20.2663 14.9885 20.4082C15.23 20.5504 15.4921 20.6582 15.7749 20.7316L15.9527 22.1891Z" fill="white"/>
</svg>
