<svg width="26" height="16" viewBox="0 0 26 16" fill="none" xmlns="http://www.w3.org/2000/svg">
<path d="M7.85728 0C10.063 0 11.8573 1.79429 11.8573 4C11.8573 6.20571 10.063 8 7.85728 8C5.65157 8 3.85728 6.20571 3.85728 4C3.85728 1.79429 5.65157 0 7.85728 0ZM0.428711 16V13.1429C0.428711 10.9371 4.383 9.14286 7.85728 9.14286C9.20585 9.14286 10.623 9.41714 11.8573 9.87429V12.0686C10.9201 11.68 9.46871 11.4286 7.85728 11.4286C5.00014 11.4286 2.71443 12.1943 2.71443 13.1429V13.7143H11.8573V16H0.428711ZM24.4287 16H15.2859C14.6573 16 14.143 15.4857 14.143 14.8571V1.14286C14.143 0.514286 14.6573 0 15.2859 0H21.0001L25.5716 4.57143V14.8571C25.5716 15.4857 25.0573 16 24.4287 16ZM16.4287 2.28571V13.7143H23.2859V5.71429H19.8573V2.28571H16.4287ZM7.85728 2.28571C6.90871 2.28571 6.143 3.05143 6.143 4C6.143 4.94857 6.90871 5.71429 7.85728 5.71429C8.80585 5.71429 9.57157 4.94857 9.57157 4C9.57157 3.05143 8.80585 2.28571 7.85728 2.28571ZM17.5716 9.14286H22.143V11.4286H17.5716V9.14286Z" fill="white"/>
</svg>
