<svg width="20" height="24" viewBox="0 0 20 24" fill="none" xmlns="http://www.w3.org/2000/svg">
<path d="M3.75 19.55L10 13.8L12.35 15.962C11.6625 17.0085 11.25 18.239 11.25 19.55H3.75ZM7.5 9.775C7.5 8.8205 6.6625 8.05 5.625 8.05C4.5875 8.05 3.75 8.8205 3.75 9.775C3.75 10.7295 4.5875 11.5 5.625 11.5C6.6625 11.5 7.5 10.7295 7.5 9.775ZM11.3625 20.7H2.5V2.3H11.25V8.05H17.5V12.7535C17.9125 12.696 18.325 12.65 18.75 12.65C19.175 12.65 19.5875 12.696 20 12.7535V6.9L12.5 0H2.5C1.1125 0 0 1.035 0 2.3V20.7C0 21.9765 1.1125 23 2.5 23H12.2625C11.825 22.2985 11.5125 21.528 11.3625 20.7Z" fill="white"/>
<path d="M19.3182 16.2727V21.5C19.3182 22.5045 18.5045 23.3182 17.5 23.3182C16.4955 23.3182 15.6818 22.5045 15.6818 21.5V15.8182C15.6818 15.1909 16.1909 14.6818 16.8182 14.6818C17.4455 14.6818 17.9545 15.1909 17.9545 15.8182V20.5909C17.9545 20.8409 17.75 21.0455 17.5 21.0455C17.25 21.0455 17.0455 20.8409 17.0455 20.5909V16.2727H16.3636V20.5909C16.3636 21.2182 16.8727 21.7273 17.5 21.7273C18.1273 21.7273 18.6364 21.2182 18.6364 20.5909V15.8182C18.6364 14.8136 17.8227 14 16.8182 14C15.8136 14 15 14.8136 15 15.8182V21.5C15 22.8818 16.1182 24 17.5 24C18.8818 24 20 22.8818 20 21.5V16.2727H19.3182Z" fill="white"/>
</svg>
