<svg width="22" height="20" viewBox="0 0 22 20" fill="none" xmlns="http://www.w3.org/2000/svg">
<path d="M18.7 5.60156H17.6V0.101562H4.4V5.60156H3.3C1.474 5.60156 0 7.07556 0 8.90156V15.5016H4.4V19.9016H17.6V15.5016H22V8.90156C22 7.07556 20.526 5.60156 18.7 5.60156ZM6.6 2.30156H15.4V5.60156H6.6V2.30156ZM15.4 15.5016V17.7016H6.6V13.3016H15.4V15.5016ZM17.6 13.3016V11.1016H4.4V13.3016H2.2V8.90156C2.2 8.29656 2.695 7.80156 3.3 7.80156H18.7C19.305 7.80156 19.8 8.29656 19.8 8.90156V13.3016H17.6Z" fill="white"/>
</svg>
