<svg width="18" height="18" viewBox="0 0 18 18" fill="none" xmlns="http://www.w3.org/2000/svg">
<path d="M16 16H2V2H9V0H2C0.89 0 0 0.9 0 2V16C0 16.5304 0.210714 17.0391 0.585786 17.4142C0.960859 17.7893 1.46957 18 2 18H16C16.5304 18 17.0391 17.7893 17.4142 17.4142C17.7893 17.0391 18 16.5304 18 16V9H16V16Z" fill="#0570C7"/>
<path d="M3.23992 10V8H10.2399V15H8.23992V11.41L2.5 17L1.09 15.59L6.82992 10H3.23992Z" fill="#0570C7"/>
<path fill-rule="evenodd" clip-rule="evenodd" d="M10.5 0C10.2239 0 10 0.223858 10 0.5V6.5C10 6.77614 10.2239 7 10.5 7H17.5C17.7761 7 18 6.77614 18 6.5V0.5C18 0.223858 17.7761 0 17.5 0H10.5ZM12.5 2C12.2239 2 12 2.22386 12 2.5V4.5C12 4.77614 12.2239 5 12.5 5H15.5C15.7761 5 16 4.77614 16 4.5V2.5C16 2.22386 15.7761 2 15.5 2H12.5Z" fill="#0570C7"/>
</svg>
