<svg width="22" height="22" viewBox="0 0 22 22" fill="none" xmlns="http://www.w3.org/2000/svg">
<path d="M21.6526 12.2505L20.1705 10.7684C19.9274 10.5253 19.5221 10.5253 19.2789 10.7684L18.1211 11.9263L20.4947 14.3L21.6526 13.1421C21.8958 12.8989 21.8958 12.4937 21.6526 12.2505ZM10.4211 22H12.8063L19.8116 14.9716L17.4379 12.5979L10.4211 19.6147V22ZM8.10526 20.8421H2.31579C1.70211 20.8421 1.11158 20.5989 0.683158 20.1589C0.243158 19.7305 0 19.14 0 18.5263V2.31579C0 1.70211 0.243158 1.11158 0.683158 0.683158C1.11158 0.243158 1.70211 0 2.31579 0H18.5263C19.8 0 20.8421 1.03053 20.8421 2.31579V8.48737C20.1011 8.18632 19.2558 8.19789 18.5263 8.52211V2.31579H2.31579V18.5263H8.23263L8.10526 18.6537V20.8421ZM13.4547 13.3158L10.5484 16.2105H5.21053V15.3421C5.21053 13.6053 8.68421 12.7368 10.4211 12.7368C11.2316 12.7368 12.4242 12.9221 13.4547 13.3158ZM12.2621 9.94632C11.7758 10.4211 11.1158 10.7105 10.4211 10.7105C9.72632 10.7105 9.06632 10.4211 8.58 9.94632C8.10526 9.46 7.81579 8.8 7.81579 8.10526C7.81579 7.41053 8.10526 6.75053 8.58 6.26421C9.06632 5.78947 9.72632 5.5 10.4211 5.5C11.1158 5.5 11.7758 5.78947 12.2621 6.26421C12.7368 6.75053 13.0263 7.41053 13.0263 8.10526C13.0263 8.8 12.7368 9.46 12.2621 9.94632Z" fill="white"/>
</svg>
